<svg width="100" height="100" viewBox="0 0 430 194" fill="none" xmlns="http://www.w3.org/2000/svg">
<rect width="100" height="100" fill="none"/>
<path d="M34.064 135.352C30.736 135.352 27.696 134.392 24.944 132.472C22.256 130.616 20.112 127.928 18.512 124.408C16.912 120.824 16.112 116.536 16.112 111.544C16.112 106.616 16.88 101.624 18.416 96.568C19.952 91.512 22.032 86.68 24.656 82.072C27.344 77.464 30.384 73.368 33.776 69.784C37.168 66.136 40.72 63.256 44.432 61.144C48.208 59.032 51.92 57.976 55.568 57.976C58 57.976 59.952 58.488 61.424 59.512C62.896 60.536 63.952 61.88 64.592 63.544C65.232 65.144 65.552 66.904 65.552 68.824C65.552 71.064 65.168 73.272 64.4 75.448C63.632 77.56 62.608 79.32 61.328 80.728C60.048 82.136 58.64 82.84 57.104 82.84C56.592 82.84 56.048 82.68 55.472 82.36C54.96 82.04 54.512 81.464 54.128 80.632C55.024 79.992 56.048 78.84 57.2 77.176C58.416 75.512 59.44 73.656 60.272 71.608C61.168 69.56 61.616 67.672 61.616 65.944C61.616 64.472 61.168 63.256 60.272 62.296C59.44 61.336 57.968 60.856 55.856 60.856C53.104 60.856 50.224 61.976 47.216 64.216C44.272 66.456 41.392 69.464 38.576 73.24C35.824 76.952 33.328 81.112 31.088 85.72C28.848 90.328 27.056 95.032 25.712 99.832C24.432 104.632 23.792 109.176 23.792 113.464C23.792 119.288 25.008 123.832 27.44 127.096C29.872 130.424 32.944 132.088 36.656 132.088C39.152 132.088 41.52 131.16 43.76 129.304C46 127.512 47.984 125.176 49.712 122.296C51.44 119.352 52.816 116.184 53.84 112.792C54.928 109.4 55.6 106.136 55.856 103C53.488 102.488 51.568 102.168 50.096 102.04C48.624 101.848 47.248 101.752 45.968 101.752C45.136 101.752 44.24 101.784 43.28 101.848C42.384 101.848 41.328 101.848 40.112 101.848C40.56 99.992 41.328 98.712 42.416 98.008C43.568 97.24 44.976 96.856 46.64 96.856C48.432 96.856 50.288 97.176 52.208 97.816C54.192 98.392 56.112 99.032 57.968 99.736C59.824 100.44 61.456 100.984 62.864 101.368L62.192 104.44C60.976 107.64 59.984 110.456 59.216 112.888C58.448 115.256 57.84 117.368 57.392 119.224C57.008 121.016 56.72 122.616 56.528 124.024C56.4 125.432 56.336 126.712 56.336 127.864C56.336 129.144 56.368 130.392 56.432 131.608C56.56 132.824 56.656 134.072 56.72 135.352C55.696 134.904 54.768 134.36 53.936 133.72C53.168 133.144 52.56 132.408 52.112 131.512C51.728 130.616 51.536 129.592 51.536 128.44C51.536 127.736 51.568 127.032 51.632 126.328C51.76 125.624 51.952 124.856 52.208 124.024C49.904 127.224 47.248 129.912 44.24 132.088C41.232 134.264 37.84 135.352 34.064 135.352ZM71.7643 131.512C69.7803 131.512 68.1163 130.84 66.7722 129.496C65.3642 128.216 64.6602 126.232 64.6602 123.544C64.6602 121.24 65.1722 118.776 66.1962 116.152C67.2202 113.464 68.6283 110.84 70.4203 108.28C72.2123 105.656 74.2283 103.288 76.4683 101.176C78.7723 99 81.1723 97.272 83.6683 95.992C86.2283 94.712 88.7563 94.072 91.2523 94.072C93.7483 94.072 95.8283 94.744 97.4923 96.088C99.1563 97.368 99.9883 99.096 99.9883 101.272C99.9883 102.872 99.5403 103.96 98.6443 104.536C97.8123 105.112 96.6923 105.4 95.2843 105.4C95.4123 104.888 95.5083 104.344 95.5723 103.768C95.7003 103.128 95.7643 102.552 95.7643 102.04C95.7643 100.568 95.4123 99.32 94.7083 98.296C94.0043 97.208 92.7883 96.664 91.0603 96.664C89.2683 96.664 87.4443 97.304 85.5883 98.584C83.7323 99.8 81.9403 101.464 80.2123 103.576C78.4843 105.624 76.9483 107.864 75.6043 110.296C74.2603 112.728 73.2043 115.128 72.4363 117.496C71.6683 119.864 71.2843 121.976 71.2843 123.832C71.2843 126.328 72.1483 127.576 73.8763 127.576C75.3483 127.576 76.9483 126.904 78.6763 125.56C80.4043 124.152 82.1643 122.392 83.9563 120.28C85.8123 118.104 87.5723 115.864 89.2363 113.56C90.9003 111.256 92.3723 109.144 93.6523 107.224C93.9083 106.84 94.0683 106.648 94.1323 106.648C94.5163 106.712 94.9963 106.84 95.5723 107.032C96.2123 107.224 96.7563 107.48 97.2043 107.8C97.6523 108.12 97.8763 108.536 97.8763 109.048C97.8763 109.624 97.5883 110.424 97.0123 111.448C96.4363 112.408 95.7963 113.528 95.0923 114.808C94.3883 116.088 93.7483 117.4 93.1723 118.744C92.5963 120.024 92.3083 121.24 92.3083 122.392C92.3083 123.352 92.5643 124.312 93.0763 125.272C93.5883 126.168 94.4203 126.616 95.5723 126.616C97.3003 126.616 99.5723 125.368 102.388 122.872C105.204 120.312 108.052 116.504 110.932 111.448L111.892 112.408C110.548 115.864 108.82 118.904 106.708 121.528C104.596 124.152 102.324 126.2 99.8923 127.672C97.5243 129.144 95.1883 129.88 92.8843 129.88C90.5163 129.88 88.7563 129.176 87.6043 127.768C86.5163 126.36 85.9723 124.824 85.9723 123.16C85.9723 122.776 86.0043 122.36 86.0683 121.912C86.1323 121.4 86.1963 120.888 86.2603 120.376C83.5083 124.088 80.9803 126.872 78.6763 128.728C76.4363 130.584 74.1323 131.512 71.7643 131.512ZM116.937 129.88C114.185 129.88 112.201 128.92 110.985 127C109.833 125.144 109.257 122.808 109.257 119.992C109.257 116.92 109.833 113.272 110.985 109.048C112.137 104.824 113.641 100.376 115.497 95.704C117.417 91.032 119.497 86.488 121.737 82.072C123.977 77.592 126.217 73.528 128.457 69.88C130.697 66.232 132.745 63.32 134.601 61.144C136.521 58.968 138.025 57.88 139.113 57.88C139.817 57.88 140.393 58.296 140.841 59.128C141.289 59.896 141.641 60.856 141.897 62.008C142.153 63.096 142.281 64.088 142.281 64.984C142.281 66.712 141.833 68.984 140.937 71.8C140.105 74.552 138.889 77.656 137.289 81.112C135.753 84.504 133.897 87.96 131.721 91.48C129.609 94.936 127.273 98.264 124.713 101.464C122.217 104.664 119.561 107.416 116.745 109.72C116.361 111.448 116.041 113.144 115.785 114.808C115.593 116.408 115.497 117.944 115.497 119.416C115.497 124.344 116.905 126.808 119.721 126.808C121.257 126.808 122.793 126.168 124.329 124.888C125.929 123.544 127.433 121.848 128.841 119.8C130.313 117.752 131.593 115.576 132.681 113.272C133.321 109.944 134.281 106.392 135.561 102.616C136.841 98.776 138.313 94.936 139.977 91.096C141.641 87.256 143.401 83.576 145.257 80.056C147.113 76.536 148.937 73.4 150.729 70.648C152.521 67.896 154.185 65.72 155.721 64.12C157.257 62.52 158.505 61.72 159.465 61.72C160.169 61.72 160.745 62.136 161.193 62.968C161.641 63.736 161.993 64.696 162.249 65.848C162.505 66.936 162.633 67.928 162.633 68.824C162.633 70.936 162.089 73.72 161.001 77.176C159.913 80.568 158.345 84.216 156.297 88.12C154.313 92.024 151.881 95.896 149.001 99.736C146.185 103.512 143.017 106.84 139.497 109.72C139.113 111.448 138.793 113.144 138.537 114.808C138.345 116.408 138.249 117.944 138.249 119.416C138.249 124.344 139.657 126.808 142.473 126.808C144.201 126.808 145.897 126.04 147.561 124.504C149.289 122.968 150.889 121.048 152.361 118.744C153.897 116.376 155.209 113.944 156.297 111.448L157.737 112.216C155.177 117.656 152.393 121.976 149.385 125.176C146.377 128.312 143.145 129.88 139.689 129.88C136.617 129.88 134.505 128.728 133.353 126.424C132.201 124.12 131.785 121.24 132.105 117.784C129.865 121.56 127.465 124.536 124.905 126.712C122.409 128.824 119.753 129.88 116.937 129.88ZM117.609 106.456C119.849 104.216 122.025 101.656 124.137 98.776C126.249 95.832 128.201 92.792 129.993 89.656C131.849 86.52 133.481 83.48 134.889 80.536C136.297 77.592 137.385 74.968 138.153 72.664C138.921 70.296 139.305 68.472 139.305 67.192C139.305 66.552 139.209 66.136 139.017 65.944C138.889 65.752 138.761 65.656 138.633 65.656C138.121 65.656 137.225 66.488 135.945 68.152C134.729 69.752 133.289 71.928 131.625 74.68C129.961 77.432 128.265 80.568 126.537 84.088C124.809 87.608 123.145 91.288 121.545 95.128C120.009 98.968 118.697 102.744 117.609 106.456ZM140.361 106.456C143.177 103.64 145.737 100.536 148.041 97.144C150.409 93.752 152.457 90.36 154.185 86.968C155.913 83.576 157.257 80.472 158.217 77.656C159.177 74.84 159.657 72.632 159.657 71.032C159.657 70.392 159.561 69.976 159.369 69.784C159.241 69.592 159.113 69.496 158.985 69.496C158.345 69.496 157.257 70.552 155.721 72.664C154.249 74.712 152.553 77.496 150.633 81.016C148.777 84.536 146.921 88.504 145.065 92.92C143.273 97.336 141.705 101.848 140.361 106.456ZM164.712 131.224C160.808 131.224 157.864 130.136 155.88 127.96C153.96 125.848 153 123.224 153 120.088C153 117.208 153.704 114.168 155.112 110.968C156.584 107.768 158.504 104.76 160.872 101.944C163.304 99.128 165.96 96.856 168.84 95.128C171.72 93.336 174.568 92.44 177.384 92.44C178.856 92.44 180.2 92.824 181.416 93.592C182.696 94.36 183.336 95.928 183.336 98.296C183.336 100.728 182.6 103.032 181.128 105.208C179.72 107.32 177.832 109.208 175.464 110.872C173.16 112.536 170.6 113.912 167.784 115C165.032 116.024 162.28 116.664 159.528 116.92C159.4 117.56 159.304 118.168 159.24 118.744C159.176 119.32 159.144 119.864 159.144 120.376C159.144 121.336 159.24 122.296 159.432 123.256C159.688 124.216 160.104 125.112 160.68 125.944C161.256 126.712 162.024 127.32 162.984 127.768C164.008 128.216 165.256 128.44 166.728 128.44C169.48 128.44 172.2 127.672 174.888 126.136C177.576 124.536 180.072 122.456 182.376 119.896C184.68 117.336 186.632 114.52 188.232 111.448L189.384 112.312C187.656 116.152 185.448 119.48 182.76 122.296C180.136 125.112 177.256 127.288 174.12 128.824C171.048 130.424 167.912 131.224 164.712 131.224ZM160.008 115.096C161.736 114.52 163.688 113.688 165.864 112.6C168.04 111.448 170.12 110.104 172.104 108.568C174.152 107.032 175.816 105.336 177.096 103.48C178.44 101.624 179.112 99.672 179.112 97.624C179.112 96.92 178.984 96.376 178.728 95.992C178.472 95.608 177.928 95.416 177.096 95.416C175.56 95.416 173.928 96.024 172.2 97.24C170.472 98.392 168.808 99.928 167.208 101.848C165.608 103.768 164.168 105.88 162.888 108.184C161.608 110.488 160.648 112.792 160.008 115.096ZM202.921 129.496C200.745 129.496 199.017 128.92 197.737 127.768C196.521 126.616 195.913 125.112 195.913 123.256C195.913 121.336 196.361 119.32 197.257 117.208C198.153 115.096 199.017 113.016 199.849 110.968C200.745 108.856 201.193 106.968 201.193 105.304C201.193 103.256 200.585 101.752 199.369 100.792C198.217 99.768 197.033 98.84 195.817 98.008C194.345 101.784 192.809 105.368 191.209 108.76C189.609 112.152 188.297 114.712 187.273 116.44L186.409 114.808C187.305 113.144 188.457 110.712 189.865 107.512C191.337 104.312 192.777 100.664 194.185 96.568C193.545 95.928 193.225 95.16 193.225 94.264C193.225 92.344 193.769 90.776 194.857 89.56C195.945 88.344 196.745 87.736 197.257 87.736C197.961 87.736 198.345 88.056 198.409 88.696C198.537 89.272 198.601 89.72 198.601 90.04C198.601 90.36 198.409 91 198.025 91.96C197.705 92.856 197.545 93.4 197.545 93.592C197.545 94.488 198.025 95.32 198.984 96.088C200.009 96.792 201.161 97.624 202.441 98.584C203.721 99.48 204.841 100.6 205.801 101.944C206.825 103.224 207.337 104.888 207.337 106.936C207.337 108.856 206.921 110.808 206.089 112.792C205.321 114.776 204.521 116.664 203.689 118.456C202.921 120.248 202.537 121.816 202.537 123.16C202.537 124.312 202.825 125.08 203.401 125.464C203.977 125.848 204.649 126.04 205.417 126.04C206.953 126.04 208.521 125.56 210.121 124.6C211.785 123.64 213.385 122.424 214.921 120.952C216.457 119.48 217.833 117.944 219.049 116.344C220.265 114.68 221.161 113.144 221.737 111.736L222.985 112.696C221.769 115.384 220.105 118.04 217.993 120.664C215.881 123.224 213.513 125.336 210.889 127C208.329 128.664 205.673 129.496 202.921 129.496ZM223.816 153.88C222.216 153.88 220.808 153.432 219.591 152.536C218.375 151.704 217.767 150.456 217.767 148.792C217.767 146.744 218.279 144.92 219.303 143.32C220.328 141.72 221.704 140.248 223.432 138.904C225.16 137.56 227.144 136.28 229.384 135.064C231.624 133.848 233.96 132.632 236.392 131.416C237.288 129.048 238.184 126.424 239.08 123.544C240.04 120.6 240.936 117.368 241.768 113.848C239.72 117.176 237.512 120.056 235.144 122.488C232.84 124.856 230.376 126.04 227.752 126.04C226.536 126.04 225.32 125.784 224.104 125.272C222.952 124.696 221.992 123.832 221.224 122.68C220.456 121.528 220.072 120.056 220.072 118.264C220.072 116.472 220.36 114.392 220.936 112.024C221.576 109.656 222.344 107.352 223.24 105.112C224.136 102.872 225.064 101.016 226.023 99.544C226.984 98.072 227.816 97.336 228.52 97.336C228.776 97.336 229.224 97.432 229.864 97.624C230.568 97.816 231.208 98.104 231.784 98.488C232.424 98.808 232.744 99.16 232.744 99.544C232.168 100.376 231.528 101.56 230.824 103.096C230.12 104.632 229.416 106.36 228.712 108.28C228.072 110.136 227.528 111.96 227.08 113.752C226.632 115.544 226.408 117.08 226.408 118.36C226.408 119.512 226.664 120.44 227.176 121.144C227.688 121.848 228.584 122.2 229.864 122.2C231.08 122.2 232.424 121.624 233.896 120.472C235.432 119.256 236.936 117.72 238.408 115.864C239.944 114.008 241.352 112.024 242.632 109.912C242.824 109.208 242.984 108.504 243.112 107.8C243.304 107.032 243.464 106.264 243.592 105.496C243.784 104.6 244.232 103.576 244.936 102.424C245.704 101.208 246.888 100.6 248.488 100.6C248.808 100.6 249.128 100.632 249.448 100.696C249.768 100.696 250.12 100.76 250.504 100.888C250.504 101.912 250.184 103.832 249.544 106.648C248.968 109.4 248.104 112.632 246.952 116.344C245.864 120.056 244.552 123.864 243.016 127.768C246.024 126.616 248.968 124.728 251.848 122.104C254.728 119.416 257.064 115.864 258.856 111.448L260.104 112.408C259.144 115.48 257.672 118.168 255.688 120.472C253.768 122.712 251.592 124.664 249.16 126.328C246.728 127.928 244.328 129.272 241.96 130.36C240.296 134.456 238.472 138.296 236.488 141.88C234.568 145.464 232.52 148.344 230.344 150.52C228.232 152.76 226.056 153.88 223.816 153.88ZM223.336 150.808C224.296 150.808 225.896 149.528 228.136 146.968C230.44 144.472 232.872 140.056 235.432 133.72C232.808 135.128 230.376 136.504 228.136 137.848C225.896 139.256 224.104 140.76 222.76 142.36C221.416 143.96 220.744 145.816 220.744 147.928C220.744 148.44 220.936 149.048 221.32 149.752C221.704 150.456 222.376 150.808 223.336 150.808ZM301.544 138.616C300.136 138.616 298.472 137.72 296.552 135.928C294.696 134.2 292.744 131.896 290.696 129.016C288.648 126.2 286.6 123.096 284.552 119.704C282.568 116.312 280.712 112.92 278.984 109.528C277.32 106.136 275.912 103.096 274.76 100.408C272.968 106.68 271.24 112.856 269.576 118.936C267.912 124.952 266.344 130.424 264.872 135.352C263.272 135.352 261.8 134.904 260.456 134.008C259.176 133.112 258.536 131.96 258.536 130.552C258.536 129.848 258.696 128.984 259.016 127.96C259.336 127 259.624 126.104 259.88 125.272C261.48 120.216 263.048 115.448 264.584 110.968C266.12 106.488 267.624 102.168 269.096 98.008C270.568 93.848 272.072 89.72 273.608 85.624C275.208 81.528 276.872 77.4 278.6 73.24C280.328 69.08 282.184 64.76 284.168 60.28C281.48 60.728 279.144 61.4 277.16 62.296C275.176 63.128 273.576 63.928 272.36 64.696C271.144 65.4 270.312 65.752 269.864 65.752C269.608 65.752 269.224 65.624 268.712 65.368C268.264 65.048 267.848 64.696 267.464 64.312C267.08 63.864 266.888 63.48 266.888 63.16C268.552 62.456 270.504 61.688 272.744 60.856C274.984 60.024 277.448 59.32 280.136 58.744C282.824 58.168 285.608 57.88 288.488 57.88C291.24 57.88 294.024 58.232 296.84 58.936C299.72 59.576 302.344 60.632 304.712 62.104C307.144 63.512 309.096 65.368 310.568 67.672C312.04 69.912 312.776 72.632 312.776 75.832C312.776 78.968 312.04 81.688 310.568 83.992C309.16 86.232 307.272 88.12 304.904 89.656C302.6 91.192 300.072 92.44 297.32 93.4C294.568 94.296 291.848 95 289.16 95.512C286.472 95.96 284.04 96.28 281.864 96.472C279.688 96.6 278.056 96.664 276.968 96.664C278.952 100.056 280.84 103.352 282.632 106.552C284.424 109.752 286.376 112.952 288.488 116.152C290.6 119.288 293.096 122.456 295.976 125.656C298.856 128.856 302.344 132.12 306.44 135.448C306.056 136.28 305.352 137.016 304.328 137.656C303.368 138.296 302.44 138.616 301.544 138.616ZM276.296 95.128C279.752 94.936 283.24 94.392 286.76 93.496C290.344 92.536 293.608 91.224 296.552 89.56C299.496 87.832 301.864 85.688 303.656 83.128C305.448 80.504 306.344 77.4 306.344 73.816C306.344 70.296 305.512 67.544 303.848 65.56C302.184 63.512 300.04 62.072 297.416 61.24C294.792 60.344 292.04 59.896 289.16 59.896C286.984 64.312 284.808 69.624 282.632 75.832C280.456 81.976 278.344 88.408 276.296 95.128ZM319.727 135.352C318.127 135.352 316.623 134.904 315.215 134.008C313.807 133.112 313.103 131.96 313.103 130.552C313.103 129.848 313.263 128.984 313.583 127.96C313.903 127 314.191 126.104 314.447 125.272C316.495 119 318.415 113.144 320.207 107.704C321.999 102.264 323.791 96.984 325.583 91.864C327.375 86.744 329.263 81.624 331.247 76.504C333.295 71.384 335.567 66.04 338.063 60.472C335.631 60.92 333.455 61.592 331.535 62.488C329.679 63.32 328.175 64.088 327.023 64.792C325.871 65.432 325.103 65.752 324.719 65.752C324.463 65.752 324.079 65.624 323.567 65.368C323.119 65.048 322.703 64.696 322.319 64.312C321.935 63.864 321.743 63.48 321.743 63.16C323.407 62.456 325.359 61.688 327.599 60.856C329.903 60.024 332.367 59.32 334.991 58.744C337.615 58.168 340.271 57.88 342.959 57.88C345.775 57.88 348.623 58.264 351.503 59.032C354.447 59.8 357.135 60.984 359.567 62.584C361.999 64.12 363.951 66.04 365.423 68.344C366.895 70.648 367.631 73.336 367.631 76.408C367.631 79.736 366.895 82.616 365.423 85.048C363.951 87.416 361.999 89.432 359.567 91.096C357.135 92.696 354.511 94.008 351.695 95.032C348.879 95.992 346.063 96.76 343.247 97.336C340.495 97.848 338.031 98.2 335.855 98.392C333.679 98.52 332.079 98.584 331.055 98.584H330.095C328.175 105.176 326.319 111.672 324.527 118.072C322.799 124.472 321.199 130.232 319.727 135.352ZM330.479 97.048C333.999 96.856 337.551 96.28 341.135 95.32C344.783 94.36 348.111 92.984 351.119 91.192C354.127 89.336 356.559 87.064 358.415 84.376C360.271 81.624 361.199 78.424 361.199 74.776C361.199 71.32 360.367 68.504 358.703 66.328C357.103 64.152 354.959 62.552 352.271 61.528C349.647 60.44 346.831 59.896 343.823 59.896C341.455 64.568 339.151 70.168 336.911 76.696C334.671 83.224 332.527 90.008 330.479 97.048ZM398.518 135.352C396.214 135.352 393.654 134.872 390.838 133.912C388.086 132.952 385.238 131.768 382.294 130.36C379.35 129.016 376.438 127.704 373.558 126.424C371.958 128.216 370.294 129.592 368.566 130.552C366.838 131.576 364.95 132.088 362.902 132.088C360.854 132.088 359.126 131.608 357.718 130.648C356.246 129.688 355.158 128.536 354.454 127.192C353.686 125.912 353.302 124.76 353.302 123.736C353.302 122.584 353.846 121.592 354.934 120.76C355.958 119.928 357.75 119.512 360.31 119.512C361.974 119.512 363.798 119.704 365.782 120.088C367.83 120.472 369.942 120.952 372.118 121.528C373.654 118.84 375.062 115.704 376.342 112.12C377.686 108.536 378.998 104.728 380.278 100.696C381.558 96.664 382.838 92.632 384.118 88.6C381.174 87.64 378.838 86.232 377.11 84.376C375.446 82.52 374.614 80.504 374.614 78.328C374.614 77.176 374.838 76.024 375.286 74.872C375.798 73.72 376.502 72.76 377.398 71.992C378.294 71.16 379.35 70.744 380.566 70.744C380.118 71.384 379.798 72.312 379.606 73.528C379.414 74.744 379.318 75.8 379.318 76.696C379.318 79.128 379.83 81.176 380.854 82.84C381.878 84.44 383.19 85.688 384.79 86.584C386.07 82.744 387.382 79.128 388.726 75.736C390.134 72.28 391.67 69.208 393.334 66.52C394.998 63.832 396.822 61.72 398.806 60.184C400.79 58.648 402.998 57.88 405.43 57.88C406.71 57.88 408.054 58.168 409.462 58.744C410.934 59.32 412.182 60.312 413.206 61.72C414.23 63.128 414.742 65.112 414.742 67.672C414.742 69.848 414.294 72.216 413.398 74.776C412.502 77.272 411.126 79.672 409.27 81.976C407.414 84.216 405.046 86.072 402.166 87.544C399.286 88.952 395.894 89.688 391.99 89.752C391.926 89.752 391.766 89.752 391.51 89.752C391.318 89.752 390.87 89.752 390.166 89.752C388.886 93.656 387.51 97.624 386.038 101.656C384.63 105.688 383.126 109.528 381.526 113.176C379.926 116.76 378.198 119.96 376.342 122.776C379.286 123.672 382.262 124.6 385.27 125.56C388.278 126.456 391.19 127.192 394.006 127.768C396.822 128.408 399.414 128.728 401.782 128.728C403.126 128.728 404.342 128.6 405.43 128.344C406.518 128.088 407.574 127.704 408.598 127.192C407.574 130.136 406.198 132.216 404.47 133.432C402.806 134.712 400.822 135.352 398.518 135.352ZM362.518 129.304C363.926 129.304 365.238 128.92 366.454 128.152C367.734 127.384 368.886 126.296 369.91 124.888C367.926 124.056 365.974 123.384 364.054 122.872C362.198 122.296 360.502 122.008 358.966 122.008C357.75 122.008 356.918 122.168 356.47 122.488C356.022 122.808 355.798 123.256 355.798 123.832C355.798 124.92 356.438 126.104 357.718 127.384C358.934 128.664 360.534 129.304 362.518 129.304ZM390.742 87.928C393.622 87.928 396.214 87.128 398.518 85.528C400.886 83.864 402.87 81.816 404.47 79.384C406.134 76.888 407.382 74.36 408.214 71.8C409.11 69.24 409.558 67 409.558 65.08C409.558 63.224 409.206 61.976 408.502 61.336C407.798 60.632 406.998 60.28 406.102 60.28C404.118 60.28 402.262 61.56 400.534 64.12C398.806 66.68 397.142 70.072 395.542 74.296C394.006 78.456 392.406 83 390.742 87.928Z" fill="black"/>
</svg>
