<svg width="90" height="27" viewBox="0 0 90 27" fill="none" xmlns="http://www.w3.org/2000/svg">
<path d="M4.648 23.76C4.264 23.76 4.016 23.624 3.904 23.352C3.808 23.08 3.76 22.784 3.76 22.464C3.76 21.728 3.896 20.936 4.168 20.088C4.44 19.256 4.8 18.408 5.248 17.544C5.712 16.68 6.216 15.84 6.76 15.024C7.32 14.192 7.888 13.432 8.464 12.744C9.04 12.04 9.584 11.44 10.096 10.944C10.176 10.48 10.232 10.016 10.264 9.552C10.312 9.088 10.336 8.624 10.336 8.16C10.336 8.048 10.336 7.936 10.336 7.824C10.336 7.712 10.328 7.6 10.312 7.488C10.04 7.92 9.672 8.496 9.208 9.216C8.76 9.936 8.248 10.704 7.672 11.52C7.096 12.336 6.496 13.104 5.872 13.824C5.248 14.544 4.624 15.136 4 15.6C3.392 16.064 2.824 16.296 2.296 16.296C1.72 16.296 1.28 16.112 0.976 15.744C0.688 15.376 0.496 14.928 0.4 14.4C0.304 13.872 0.256 13.384 0.256 12.936C0.256 11.848 0.424 10.752 0.76 9.648C1.112 8.544 1.592 7.48 2.2 6.456C2.808 5.416 3.504 4.472 4.288 3.624C5.088 2.76 5.944 2.04 6.856 1.464C7.32 1.176 7.816 0.92 8.344 0.696C8.888 0.472 9.432 0.36 9.976 0.36C10.824 0.36 11.48 0.624 11.944 1.152C12.424 1.68 12.664 2.352 12.664 3.168C12.664 3.28 12.648 3.472 12.616 3.744C12.584 4.016 12.496 4.152 12.352 4.152C12.192 4.152 12.104 4.048 12.088 3.84C12.072 3.616 12.064 3.448 12.064 3.336C12.064 2.696 11.864 2.16 11.464 1.728C11.08 1.296 10.56 1.08 9.904 1.08C9.264 1.08 8.624 1.248 7.984 1.584C7.344 1.904 6.728 2.336 6.136 2.88C5.544 3.424 4.992 4.016 4.48 4.656C3.984 5.296 3.544 5.944 3.16 6.6C2.776 7.24 2.472 7.824 2.248 8.352C1.944 9.088 1.688 9.832 1.48 10.584C1.288 11.32 1.192 12.088 1.192 12.888V13.44C1.192 13.76 1.208 14.08 1.24 14.4C1.288 14.72 1.4 14.992 1.576 15.216C1.752 15.424 2.04 15.528 2.44 15.528C2.952 15.528 3.488 15.312 4.048 14.88C4.608 14.448 5.168 13.888 5.728 13.2C6.288 12.512 6.824 11.784 7.336 11.016C7.864 10.248 8.344 9.52 8.776 8.832C9.224 8.144 9.6 7.584 9.904 7.152C10.208 6.72 10.416 6.504 10.528 6.504C10.72 6.504 10.856 6.6 10.936 6.792C11.016 6.968 11.064 7.176 11.08 7.416C11.112 7.656 11.128 7.872 11.128 8.064C11.128 8.416 11.12 8.768 11.104 9.12C11.088 9.472 11.064 9.816 11.032 10.152C11.112 10.088 11.264 9.976 11.488 9.816C11.728 9.656 11.96 9.512 12.184 9.384C12.424 9.24 12.592 9.168 12.688 9.168C12.768 9.168 12.808 9.2 12.808 9.264C12.808 9.312 12.72 9.416 12.544 9.576C12.384 9.736 12.192 9.912 11.968 10.104C11.744 10.296 11.528 10.472 11.32 10.632C11.128 10.792 11.008 10.896 10.96 10.944C10.816 12.192 10.584 13.464 10.264 14.76C9.96 16.04 9.552 17.288 9.04 18.504C8.544 19.72 7.928 20.848 7.192 21.888C7.032 22.112 6.808 22.368 6.52 22.656C6.232 22.96 5.92 23.216 5.584 23.424C5.264 23.648 4.952 23.76 4.648 23.76ZM4.576 22.992C5.072 22.992 5.536 22.776 5.968 22.344C6.416 21.912 6.832 21.344 7.216 20.64C7.6 19.952 7.944 19.184 8.248 18.336C8.552 17.504 8.816 16.672 9.04 15.84C9.28 15.008 9.472 14.256 9.616 13.584C9.76 12.896 9.864 12.368 9.928 12C9.304 12.672 8.768 13.296 8.32 13.872C7.872 14.448 7.464 15.024 7.096 15.6C6.744 16.16 6.408 16.768 6.088 17.424C5.784 18.08 5.464 18.832 5.128 19.68C5.032 19.92 4.92 20.208 4.792 20.544C4.664 20.896 4.552 21.24 4.456 21.576C4.36 21.928 4.312 22.24 4.312 22.512C4.312 22.576 4.328 22.672 4.36 22.8C4.392 22.928 4.464 22.992 4.576 22.992ZM13.5316 18.672C13.2596 18.672 13.0596 18.536 12.9316 18.264C12.8036 18.008 12.7236 17.712 12.6916 17.376C12.6596 17.04 12.6436 16.784 12.6436 16.608C12.6436 16 12.6996 15.36 12.8116 14.688C12.9236 14 13.0676 13.36 13.2436 12.768C13.3236 12.496 13.4676 12.104 13.6756 11.592C13.8836 11.064 14.1316 10.528 14.4196 9.984C14.7236 9.44 15.0436 8.984 15.3796 8.616C15.7316 8.232 16.0836 8.04 16.4356 8.04C16.7076 8.04 17.0036 8.16 17.3236 8.4C17.6436 8.64 17.8036 8.904 17.8036 9.192C17.8036 9.304 17.7636 9.4 17.6836 9.48C17.6996 9.464 17.7396 9.456 17.8036 9.456C18.1076 9.456 18.2596 9.616 18.2596 9.936C18.2596 10.304 18.2036 10.744 18.0916 11.256C17.9956 11.768 17.8916 12.312 17.7796 12.888C17.6676 13.448 17.6116 13.992 17.6116 14.52C17.6116 14.712 17.6276 14.944 17.6596 15.216C17.6916 15.472 17.7636 15.704 17.8756 15.912C18.0036 16.12 18.2036 16.224 18.4756 16.224C18.7316 16.224 19.0036 16.088 19.2916 15.816C19.5796 15.544 19.8596 15.208 20.1316 14.808C20.4036 14.408 20.6596 14.008 20.8996 13.608C21.1396 13.208 21.3396 12.872 21.4996 12.6C21.6756 12.328 21.7956 12.192 21.8596 12.192C21.9716 12.192 22.0276 12.264 22.0276 12.408C22.0276 12.6 21.9396 12.88 21.7636 13.248C21.6036 13.6 21.3876 13.992 21.1156 14.424C20.8436 14.84 20.5396 15.248 20.2036 15.648C19.8836 16.032 19.5556 16.352 19.2196 16.608C18.8996 16.848 18.6116 16.968 18.3556 16.968C17.9396 16.968 17.6196 16.8 17.3956 16.464C17.1876 16.112 17.0436 15.696 16.9636 15.216C16.8996 14.736 16.8676 14.288 16.8676 13.872C16.8676 13.728 16.8676 13.592 16.8676 13.464C16.8676 13.336 16.8756 13.224 16.8916 13.128C16.7956 13.352 16.6596 13.688 16.4836 14.136C16.3076 14.568 16.0996 15.048 15.8596 15.576C15.6356 16.088 15.3876 16.584 15.1156 17.064C14.8596 17.528 14.5956 17.912 14.3236 18.216C14.0516 18.52 13.7876 18.672 13.5316 18.672ZM13.7236 17.664C13.9316 17.664 14.1636 17.472 14.4196 17.088C14.6756 16.704 14.9396 16.216 15.2116 15.624C15.4996 15.016 15.7716 14.368 16.0276 13.68C16.2836 12.992 16.5156 12.344 16.7236 11.736C16.9476 11.112 17.1316 10.6 17.2756 10.2C17.4196 9.784 17.5156 9.56 17.5636 9.528L17.4196 9.552C17.3076 9.552 17.2196 9.496 17.1556 9.384C17.0916 9.256 17.0116 9.136 16.9156 9.024C16.8196 8.912 16.6596 8.856 16.4356 8.856C16.1476 8.856 15.8676 9.024 15.5956 9.36C15.3236 9.696 15.0596 10.104 14.8036 10.584C14.5636 11.048 14.3556 11.504 14.1796 11.952C14.0196 12.4 13.9076 12.736 13.8436 12.96C13.5236 14.064 13.3636 15.2 13.3636 16.368C13.3636 16.432 13.3636 16.576 13.3636 16.8C13.3796 17.008 13.4116 17.208 13.4596 17.4C13.5236 17.576 13.6116 17.664 13.7236 17.664ZM23.0575 18.312C22.6255 18.312 22.2815 18.144 22.0255 17.808C21.7695 17.456 21.5855 17.032 21.4735 16.536C21.3615 16.024 21.2895 15.52 21.2575 15.024C21.2255 14.528 21.2095 14.136 21.2095 13.848C21.2095 12.232 21.3935 10.6 21.7615 8.952C21.9375 8.184 22.1055 7.512 22.2655 6.936C22.4415 6.36 22.6255 5.824 22.8175 5.328C23.0095 4.832 23.2255 4.32 23.4655 3.792C23.7215 3.264 24.0095 2.664 24.3295 1.992H24.2575C24.1615 1.992 24.0815 1.952 24.0175 1.872C23.9695 1.776 23.9455 1.688 23.9455 1.608C23.9455 1.416 24.0655 1.256 24.3055 1.128C24.5455 1 24.7455 0.935999 24.9055 0.935999C25.2415 0.935999 25.4975 1.088 25.6735 1.392C25.8495 1.68 25.9695 2.016 26.0335 2.4C26.0975 2.768 26.1295 3.08 26.1295 3.336C26.1295 3.656 26.1055 3.984 26.0575 4.32C25.9455 5.12 25.7455 5.976 25.4575 6.888C25.1855 7.8 24.8335 8.672 24.4015 9.504C23.9855 10.32 23.4735 11.024 22.8655 11.616C22.7535 11.712 22.6095 11.832 22.4335 11.976C22.2735 12.104 22.1055 12.168 21.9295 12.168C21.8815 12.712 21.8575 13.272 21.8575 13.848C21.8575 14.056 21.8655 14.368 21.8815 14.784C21.9135 15.184 21.9695 15.608 22.0495 16.056C22.1455 16.488 22.2815 16.864 22.4575 17.184C22.6495 17.488 22.8975 17.64 23.2015 17.64C23.5375 17.64 23.8575 17.464 24.1615 17.112C24.4815 16.744 24.7775 16.296 25.0495 15.768C25.3215 15.224 25.5695 14.688 25.7935 14.16C26.0175 13.616 26.2015 13.168 26.3455 12.816C26.5055 12.448 26.6175 12.256 26.6815 12.24C26.7295 12.304 26.7535 12.4 26.7535 12.528C26.7535 12.8 26.6815 13.168 26.5375 13.632C26.3935 14.096 26.1935 14.6 25.9375 15.144C25.6975 15.672 25.4175 16.184 25.0975 16.68C24.7775 17.16 24.4415 17.552 24.0895 17.856C23.7535 18.16 23.4095 18.312 23.0575 18.312ZM21.9775 11.688C22.3455 11.592 22.6975 11.288 23.0335 10.776C23.3855 10.264 23.7055 9.64 23.9935 8.904C24.2815 8.168 24.5295 7.416 24.7375 6.648C24.9615 5.864 25.1295 5.152 25.2415 4.512C25.3695 3.856 25.4335 3.368 25.4335 3.048C25.4335 2.888 25.4175 2.688 25.3855 2.448C25.3535 2.192 25.2335 2.032 25.0255 1.968C25.0095 2.032 24.9695 2.08 24.9055 2.112C24.8575 2.144 24.8175 2.176 24.7855 2.208C24.5935 2.416 24.3775 2.816 24.1375 3.408C23.8975 4 23.6575 4.696 23.4175 5.496C23.1935 6.296 22.9775 7.104 22.7695 7.92C22.5615 8.736 22.3855 9.488 22.2415 10.176C22.0975 10.848 22.0095 11.352 21.9775 11.688ZM28.1434 18.312C27.7114 18.312 27.3674 18.144 27.1114 17.808C26.8554 17.456 26.6714 17.032 26.5594 16.536C26.4474 16.024 26.3754 15.52 26.3434 15.024C26.3114 14.528 26.2954 14.136 26.2954 13.848C26.2954 12.232 26.4794 10.6 26.8474 8.952C27.0234 8.184 27.1914 7.512 27.3514 6.936C27.5274 6.36 27.7114 5.824 27.9034 5.328C28.0954 4.832 28.3114 4.32 28.5514 3.792C28.8074 3.264 29.0954 2.664 29.4154 1.992H29.3434C29.2474 1.992 29.1674 1.952 29.1034 1.872C29.0554 1.776 29.0314 1.688 29.0314 1.608C29.0314 1.416 29.1514 1.256 29.3914 1.128C29.6314 1 29.8314 0.935999 29.9914 0.935999C30.3274 0.935999 30.5834 1.088 30.7594 1.392C30.9354 1.68 31.0554 2.016 31.1194 2.4C31.1834 2.768 31.2154 3.08 31.2154 3.336C31.2154 3.656 31.1914 3.984 31.1434 4.32C31.0314 5.12 30.8314 5.976 30.5434 6.888C30.2714 7.8 29.9194 8.672 29.4874 9.504C29.0714 10.32 28.5594 11.024 27.9514 11.616C27.8394 11.712 27.6954 11.832 27.5194 11.976C27.3594 12.104 27.1914 12.168 27.0154 12.168C26.9674 12.712 26.9434 13.272 26.9434 13.848C26.9434 14.056 26.9514 14.368 26.9674 14.784C26.9994 15.184 27.0554 15.608 27.1354 16.056C27.2314 16.488 27.3674 16.864 27.5434 17.184C27.7354 17.488 27.9834 17.64 28.2874 17.64C28.6234 17.64 28.9434 17.464 29.2474 17.112C29.5674 16.744 29.8634 16.296 30.1354 15.768C30.4074 15.224 30.6554 14.688 30.8794 14.16C31.1034 13.616 31.2874 13.168 31.4314 12.816C31.5914 12.448 31.7034 12.256 31.7674 12.24C31.8154 12.304 31.8394 12.4 31.8394 12.528C31.8394 12.8 31.7674 13.168 31.6234 13.632C31.4794 14.096 31.2794 14.6 31.0234 15.144C30.7834 15.672 30.5034 16.184 30.1834 16.68C29.8634 17.16 29.5274 17.552 29.1754 17.856C28.8394 18.16 28.4954 18.312 28.1434 18.312ZM27.0634 11.688C27.4314 11.592 27.7834 11.288 28.1194 10.776C28.4714 10.264 28.7914 9.64 29.0794 8.904C29.3674 8.168 29.6154 7.416 29.8234 6.648C30.0474 5.864 30.2154 5.152 30.3274 4.512C30.4554 3.856 30.5194 3.368 30.5194 3.048C30.5194 2.888 30.5034 2.688 30.4714 2.448C30.4394 2.192 30.3194 2.032 30.1114 1.968C30.0954 2.032 30.0554 2.08 29.9914 2.112C29.9434 2.144 29.9034 2.176 29.8714 2.208C29.6794 2.416 29.4634 2.816 29.2234 3.408C28.9834 4 28.7434 4.696 28.5034 5.496C28.2794 6.296 28.0634 7.104 27.8554 7.92C27.6474 8.736 27.4714 9.488 27.3274 10.176C27.1834 10.848 27.0954 11.352 27.0634 11.688ZM32.8934 18C32.4614 18 32.1254 17.808 31.8854 17.424C31.6614 17.04 31.5094 16.576 31.4294 16.032C31.3494 15.472 31.3094 14.952 31.3094 14.472C31.3094 14.248 31.3094 14.048 31.3094 13.872C31.3254 13.68 31.3414 13.52 31.3574 13.392H31.2854C31.0934 13.392 30.9974 13.32 30.9974 13.176C31.0294 13.096 31.0854 13.032 31.1654 12.984C31.2614 12.92 31.3494 12.88 31.4294 12.864C31.5094 12.16 31.6614 11.44 31.8854 10.704C32.1094 9.968 32.4134 9.304 32.7974 8.712V8.568C32.7974 8.408 32.8934 8.312 33.0854 8.28C33.1654 8.2 33.2454 8.112 33.3254 8.016C33.4214 7.904 33.5254 7.848 33.6374 7.848C33.7654 7.848 33.8614 7.904 33.9254 8.016C34.0054 8.112 34.0134 8.216 33.9494 8.328C34.2534 8.392 34.5254 8.52 34.7654 8.712C35.0214 8.888 35.1494 9.152 35.1494 9.504C35.1494 9.968 34.9734 10.448 34.6214 10.944C34.2854 11.424 33.8774 11.864 33.3974 12.264C32.9334 12.648 32.5094 12.936 32.1254 13.128C32.0774 13.512 32.0454 13.904 32.0294 14.304C32.0294 14.688 32.0294 15.072 32.0294 15.456C32.0294 15.648 32.0374 15.888 32.0534 16.176C32.0854 16.464 32.1574 16.72 32.2694 16.944C32.3974 17.168 32.6054 17.28 32.8934 17.28C33.1974 17.28 33.4934 17.144 33.7814 16.872C34.0854 16.6 34.3734 16.256 34.6454 15.84C34.9334 15.408 35.1974 14.96 35.4374 14.496C35.6774 14.032 35.8854 13.592 36.0614 13.176C36.2374 12.76 36.3654 12.44 36.4454 12.216C36.4774 12.136 36.5174 12.064 36.5654 12C36.6134 11.92 36.6854 11.88 36.7814 11.88C36.9094 11.88 36.9734 11.96 36.9734 12.12C36.9734 12.376 36.8854 12.744 36.7094 13.224C36.5334 13.688 36.2934 14.192 35.9894 14.736C35.7014 15.28 35.3734 15.8 35.0054 16.296C34.6534 16.792 34.2934 17.2 33.9254 17.52C33.5574 17.84 33.2134 18 32.8934 18ZM32.2454 12.384C32.5494 12.192 32.8534 11.952 33.1574 11.664C33.4614 11.376 33.7174 11.048 33.9254 10.68C34.1334 10.312 34.2374 9.944 34.2374 9.576C34.2374 9.384 34.1414 9.248 33.9494 9.168C33.7574 9.072 33.5894 9.016 33.4454 9C33.1414 9.496 32.8854 10.04 32.6774 10.632C32.4854 11.224 32.3414 11.808 32.2454 12.384ZM37.54 17.928C37.428 17.928 37.34 17.888 37.276 17.808C37.212 17.728 37.18 17.632 37.18 17.52C37.18 16.912 37.204 16.304 37.252 15.696C37.316 15.072 37.348 14.456 37.348 13.848C37.348 13.448 37.332 12.944 37.3 12.336C37.284 11.712 37.228 11.104 37.132 10.512C37.052 9.904 36.908 9.44 36.7 9.12C36.684 9.088 36.668 9.064 36.652 9.048C36.636 9.016 36.628 8.984 36.628 8.952C36.628 8.856 36.676 8.792 36.772 8.76C36.868 8.712 36.948 8.688 37.012 8.688C37.236 8.688 37.412 8.816 37.54 9.072C37.668 9.328 37.764 9.656 37.828 10.056C37.892 10.456 37.932 10.872 37.948 11.304C37.98 11.72 37.996 12.104 37.996 12.456C37.996 12.792 37.996 13.024 37.996 13.152C37.996 13.312 37.996 13.464 37.996 13.608C38.012 13.752 38.02 13.904 38.02 14.064C38.084 13.84 38.196 13.496 38.356 13.032C38.516 12.568 38.708 12.056 38.932 11.496C39.156 10.92 39.396 10.376 39.652 9.864C39.924 9.336 40.188 8.904 40.444 8.568C40.716 8.232 40.972 8.064 41.212 8.064C41.452 8.064 41.628 8.216 41.74 8.52C41.852 8.824 41.924 9.152 41.956 9.504C42.004 9.856 42.028 10.12 42.028 10.296C42.028 10.408 42.02 10.6 42.004 10.872C41.988 11.128 41.948 11.368 41.884 11.592C41.836 11.816 41.74 11.928 41.596 11.928C41.468 11.928 41.404 11.784 41.404 11.496C41.404 11.368 41.412 11.248 41.428 11.136C41.444 11.024 41.452 10.936 41.452 10.872C41.452 10.792 41.444 10.608 41.428 10.32C41.412 10.016 41.372 9.728 41.308 9.456C41.26 9.184 41.188 9.048 41.092 9.048C40.996 9.048 40.876 9.144 40.732 9.336C40.604 9.512 40.468 9.728 40.324 9.984C40.196 10.224 40.076 10.464 39.964 10.704C39.868 10.928 39.804 11.088 39.772 11.184C39.532 11.776 39.276 12.448 39.004 13.2C38.748 13.952 38.524 14.712 38.332 15.48C38.156 16.232 38.068 16.936 38.068 17.592C37.956 17.816 37.78 17.928 37.54 17.928ZM42.004 26.76C41.62 26.76 41.34 26.624 41.164 26.352C40.988 26.096 40.876 25.784 40.828 25.416C40.764 25.048 40.732 24.728 40.732 24.456C40.732 23.8 40.82 23.048 40.996 22.2C41.156 21.368 41.412 20.544 41.764 19.728C42.116 18.928 42.564 18.232 43.108 17.64C43.652 17.032 44.292 16.64 45.028 16.464C45.076 16.448 45.148 16.44 45.244 16.44C45.564 16.44 45.772 16.576 45.868 16.848C45.98 17.12 46.036 17.384 46.036 17.64C46.036 17.736 46.02 17.912 45.988 18.168C45.956 18.44 45.892 18.688 45.796 18.912C45.716 19.136 45.604 19.248 45.46 19.248C45.396 19.248 45.34 19.216 45.292 19.152C45.26 19.104 45.244 19.048 45.244 18.984C45.244 18.76 45.284 18.536 45.364 18.312C45.444 18.088 45.484 17.864 45.484 17.64C45.484 17.464 45.46 17.328 45.412 17.232C45.38 17.136 45.268 17.088 45.076 17.088C44.948 17.088 44.764 17.168 44.524 17.328C44.284 17.472 44.116 17.584 44.02 17.664C43.444 18.144 42.956 18.736 42.556 19.44C42.172 20.16 41.876 20.912 41.668 21.696C41.476 22.496 41.38 23.272 41.38 24.024C41.38 24.168 41.388 24.4 41.404 24.72C41.42 25.04 41.468 25.336 41.548 25.608C41.644 25.896 41.796 26.04 42.004 26.04C42.292 26.04 42.604 25.88 42.94 25.56C43.276 25.24 43.604 24.848 43.924 24.384C44.244 23.936 44.524 23.488 44.764 23.04C45.004 22.608 45.172 22.264 45.268 22.008C45.796 20.552 46.228 19.104 46.564 17.664C46.9 16.224 47.068 14.728 47.068 13.176C47.068 12.584 47.044 11.992 46.996 11.4C46.9 11.656 46.748 11.992 46.54 12.408C46.348 12.808 46.116 13.24 45.844 13.704C45.588 14.168 45.308 14.608 45.004 15.024C44.716 15.44 44.412 15.784 44.092 16.056C43.788 16.312 43.484 16.44 43.18 16.44C42.988 16.44 42.844 16.368 42.748 16.224C42.668 16.064 42.612 15.888 42.58 15.696C42.564 15.488 42.556 15.32 42.556 15.192C42.556 15.016 42.58 14.72 42.628 14.304C42.676 13.888 42.74 13.416 42.82 12.888C42.9 12.36 42.988 11.832 43.084 11.304C43.18 10.776 43.268 10.304 43.348 9.888C43.444 9.456 43.524 9.152 43.588 8.976C43.668 8.784 43.788 8.688 43.948 8.688C44.06 8.688 44.164 8.728 44.26 8.808C44.356 8.888 44.404 8.992 44.404 9.12C44.404 9.664 44.308 10.256 44.116 10.896C43.94 11.536 43.764 12.184 43.588 12.84C43.412 13.48 43.324 14.112 43.324 14.736C43.324 14.784 43.332 14.92 43.348 15.144C43.364 15.368 43.404 15.48 43.468 15.48C43.5 15.48 43.524 15.488 43.54 15.504C43.556 15.504 43.572 15.496 43.588 15.48C44.02 15.32 44.42 14.992 44.788 14.496C45.156 13.984 45.484 13.4 45.772 12.744C46.076 12.088 46.324 11.44 46.516 10.8C46.724 10.16 46.876 9.64 46.972 9.24C46.988 9.176 47.012 9.112 47.044 9.048C47.076 8.984 47.132 8.952 47.212 8.952C47.356 8.952 47.468 9.128 47.548 9.48C47.644 9.816 47.708 10.224 47.74 10.704C47.788 11.168 47.82 11.6 47.836 12C47.852 12.384 47.86 12.616 47.86 12.696C47.86 14.392 47.66 16.072 47.26 17.736C46.876 19.4 46.34 21.008 45.652 22.56C45.524 22.848 45.324 23.224 45.052 23.688C44.796 24.152 44.492 24.616 44.14 25.08C43.804 25.56 43.444 25.96 43.06 26.28C42.692 26.6 42.34 26.76 42.004 26.76ZM60.7289 18.528C60.1849 18.528 59.6489 18.368 59.1209 18.048C58.5929 17.744 58.0809 17.344 57.5849 16.848C57.0889 16.336 56.6169 15.792 56.1689 15.216C55.7209 14.64 55.2969 14.08 54.8969 13.536C54.5129 12.992 54.1609 12.536 53.8409 12.168C53.7289 12.12 53.5769 12.064 53.3849 12C53.1929 11.92 53.0569 11.84 52.9769 11.76C52.8329 11.664 52.6729 11.512 52.4969 11.304C52.3369 11.08 52.2569 10.88 52.2569 10.704C52.2569 10.528 52.3449 10.416 52.5209 10.368C52.6969 10.304 52.8489 10.272 52.9769 10.272C53.2809 10.272 53.5529 10.368 53.7929 10.56C54.0489 10.736 54.2489 10.936 54.3929 11.16C54.7769 11.064 55.2569 10.888 55.8329 10.632C56.4089 10.36 57.0089 10.032 57.6329 9.648C58.2729 9.264 58.8649 8.848 59.4089 8.4C59.9529 7.936 60.3929 7.472 60.7289 7.008C61.0809 6.528 61.2569 6.064 61.2569 5.616C61.2569 5.056 61.0969 4.576 60.7769 4.176C60.4729 3.776 60.0729 3.448 59.5769 3.192C59.0809 2.92 58.5369 2.712 57.9449 2.568C57.3689 2.424 56.8009 2.328 56.2409 2.28C55.6809 2.216 55.1929 2.184 54.7769 2.184C54.3449 2.184 53.7769 2.24 53.0729 2.352C52.3849 2.448 51.6649 2.6 50.9129 2.808C50.1609 3 49.4809 3.248 48.8729 3.552C48.2809 3.856 47.8649 4.208 47.6249 4.608C47.6089 4.656 47.5849 4.712 47.5529 4.776C47.5049 4.824 47.4409 4.848 47.3609 4.848C47.3129 4.848 47.2809 4.824 47.2649 4.776C47.2329 4.728 47.2169 4.688 47.2169 4.656C47.2169 4.624 47.2249 4.584 47.2409 4.536C47.2569 4.488 47.2729 4.448 47.2889 4.416C47.4649 4.048 47.7769 3.712 48.2249 3.408C48.6569 3.104 49.1609 2.832 49.7369 2.592C50.3289 2.352 50.9369 2.144 51.5609 1.968C52.1849 1.792 52.7689 1.664 53.3129 1.584C53.8729 1.488 54.3369 1.44 54.7049 1.44C55.2009 1.44 55.7609 1.488 56.3849 1.584C57.0249 1.664 57.6729 1.8 58.3289 1.992C58.9849 2.184 59.5849 2.448 60.1289 2.784C60.6889 3.104 61.1369 3.504 61.4729 3.984C61.8089 4.448 61.9769 5.008 61.9769 5.664C61.9769 6.256 61.8009 6.824 61.4489 7.368C61.0969 7.896 60.6409 8.384 60.0809 8.832C59.5209 9.28 58.9049 9.688 58.2329 10.056C57.5769 10.408 56.9289 10.704 56.2889 10.944C55.6489 11.184 55.0809 11.36 54.5849 11.472C54.8089 11.84 55.0889 12.296 55.4249 12.84C55.7609 13.368 56.1289 13.92 56.5289 14.496C56.9289 15.072 57.3529 15.616 57.8009 16.128C58.2649 16.624 58.7369 17.032 59.2169 17.352C59.6969 17.656 60.1769 17.808 60.6569 17.808C61.1049 17.808 61.4649 17.728 61.7369 17.568C62.0249 17.408 62.2489 17.248 62.4089 17.088C62.5689 16.928 62.6649 16.848 62.6969 16.848C62.8249 16.848 62.8889 16.912 62.8889 17.04C62.8889 17.264 62.7449 17.496 62.4569 17.736C62.1849 17.96 61.8809 18.144 61.5449 18.288C61.2089 18.448 60.9369 18.528 60.7289 18.528ZM52.0649 18.264C51.4249 18.264 50.9529 18.096 50.6489 17.76C50.3449 17.424 50.1529 17.008 50.0729 16.512C49.9929 16 49.9529 15.488 49.9529 14.976C49.9529 13.232 50.2649 11.576 50.8889 10.008C51.5289 8.44 52.2649 6.92 53.0969 5.448C53.1289 5.384 53.1449 5.328 53.1449 5.28C53.1449 5.2 53.1369 5.152 53.1209 5.136C53.1209 5.12 53.1129 5.112 53.0969 5.112C52.9689 5.112 52.9369 5.056 53.0009 4.944C53.0809 4.832 53.2009 4.704 53.3609 4.56C53.5209 4.4 53.6809 4.264 53.8409 4.152C54.0009 4.04 54.1129 3.984 54.1769 3.984C54.3049 3.984 54.4329 4.032 54.5609 4.128C54.6889 4.208 54.7529 4.32 54.7529 4.464C54.7529 4.528 54.6169 4.776 54.3449 5.208C54.0729 5.64 53.7289 6.208 53.3129 6.912C52.9129 7.616 52.5049 8.416 52.0889 9.312C51.6889 10.192 51.3529 11.128 51.0809 12.12C50.8089 13.096 50.6729 14.072 50.6729 15.048C50.6729 15.304 50.6969 15.64 50.7449 16.056C50.8089 16.472 50.9209 16.856 51.0809 17.208C51.2409 17.544 51.4889 17.744 51.8249 17.808C51.9049 17.824 52.0249 17.856 52.1849 17.904C52.3449 17.952 52.4329 18.032 52.4489 18.144C52.4169 18.208 52.3609 18.24 52.2809 18.24C52.2009 18.256 52.1289 18.264 52.0649 18.264ZM64.9594 12.024C64.9274 12.024 64.8794 12.024 64.8154 12.024C64.7514 12.008 64.7194 11.968 64.7194 11.904C64.7194 11.776 64.7914 11.688 64.9354 11.64C65.0954 11.576 65.2154 11.536 65.2954 11.52C66.5754 11.28 67.7914 10.928 68.9434 10.464C70.0954 10 71.2074 9.4 72.2794 8.664C72.5994 8.456 72.9274 8.192 73.2634 7.872C73.5994 7.552 73.8794 7.2 74.1034 6.816C74.3434 6.416 74.4634 6.016 74.4634 5.616C74.4634 4.912 74.2394 4.336 73.7914 3.888C73.3594 3.44 72.8154 3.096 72.1594 2.856C71.5034 2.616 70.8234 2.456 70.1194 2.376C69.4314 2.28 68.8234 2.232 68.2954 2.232C67.7994 2.232 67.1914 2.272 66.4714 2.352C65.7514 2.416 65.0074 2.536 64.2394 2.712C63.4874 2.888 62.7994 3.136 62.1754 3.456C61.5674 3.76 61.1194 4.144 60.8314 4.608C60.8154 4.656 60.7914 4.712 60.7594 4.776C60.7114 4.824 60.6474 4.848 60.5674 4.848C60.5194 4.848 60.4874 4.824 60.4714 4.776C60.4394 4.728 60.4234 4.688 60.4234 4.656C60.4234 4.624 60.4314 4.584 60.4474 4.536C60.4634 4.488 60.4794 4.448 60.4954 4.416C60.7674 3.856 61.2074 3.392 61.8154 3.024C62.4394 2.64 63.1354 2.344 63.9034 2.136C64.6874 1.912 65.4554 1.752 66.2074 1.656C66.9594 1.56 67.6074 1.512 68.1514 1.512C68.6474 1.512 69.2074 1.552 69.8314 1.632C70.4554 1.712 71.0794 1.848 71.7034 2.04C72.3274 2.216 72.9034 2.464 73.4314 2.784C73.9594 3.104 74.3834 3.504 74.7034 3.984C75.0234 4.448 75.1834 5.008 75.1834 5.664C75.1834 6.368 74.9274 7.04 74.4154 7.68C73.9034 8.32 73.2394 8.904 72.4234 9.432C71.6074 9.96 70.7354 10.416 69.8074 10.8C68.8794 11.184 67.9834 11.488 67.1194 11.712C66.2554 11.92 65.5354 12.024 64.9594 12.024ZM65.2714 18.264C64.6314 18.264 64.1594 18.096 63.8554 17.76C63.5514 17.424 63.3594 17.008 63.2794 16.512C63.1994 16 63.1594 15.488 63.1594 14.976C63.1594 13.232 63.4714 11.576 64.0954 10.008C64.7354 8.44 65.4714 6.92 66.3034 5.448C66.3354 5.384 66.3514 5.328 66.3514 5.28C66.3514 5.2 66.3434 5.152 66.3274 5.136C66.3274 5.12 66.3194 5.112 66.3034 5.112C66.1754 5.112 66.1434 5.056 66.2074 4.944C66.2874 4.832 66.4074 4.704 66.5674 4.56C66.7274 4.4 66.8874 4.264 67.0474 4.152C67.2074 4.04 67.3194 3.984 67.3834 3.984C67.5114 3.984 67.6394 4.032 67.7674 4.128C67.8954 4.208 67.9594 4.32 67.9594 4.464C67.9594 4.528 67.8234 4.776 67.5514 5.208C67.2794 5.64 66.9354 6.208 66.5194 6.912C66.1194 7.616 65.7114 8.416 65.2954 9.312C64.8954 10.192 64.5594 11.128 64.2874 12.12C64.0154 13.096 63.8794 14.072 63.8794 15.048C63.8794 15.304 63.9034 15.64 63.9514 16.056C64.0154 16.472 64.1274 16.856 64.2874 17.208C64.4474 17.544 64.6954 17.744 65.0314 17.808C65.1114 17.824 65.2314 17.856 65.3914 17.904C65.5514 17.952 65.6394 18.032 65.6554 18.144C65.6234 18.208 65.5674 18.24 65.4874 18.24C65.4074 18.256 65.3354 18.264 65.2714 18.264ZM74.5593 20.784C74.0633 20.784 73.8152 20.544 73.8152 20.064C73.8152 19.904 73.9112 19.712 74.1033 19.488C74.2953 19.264 74.5033 19.048 74.7273 18.84C74.9513 18.648 75.1193 18.512 75.2313 18.432C75.3113 18.224 75.3673 18.032 75.3993 17.856C75.4473 17.68 75.4873 17.488 75.5193 17.28C75.6313 16.576 75.8313 15.864 76.1193 15.144C76.4073 14.408 76.6953 13.72 76.9833 13.08C76.5833 12.872 76.2553 12.6 75.9993 12.264C75.7593 11.912 75.6393 11.504 75.6393 11.04C75.6393 10.928 75.6633 10.744 75.7113 10.488C75.7593 10.216 75.8393 10.08 75.9513 10.08C76.0953 10.08 76.1673 10.2 76.1673 10.44C76.1673 10.68 76.1673 10.848 76.1673 10.944C76.1673 11.28 76.2713 11.584 76.4793 11.856C76.7033 12.128 76.9513 12.336 77.2233 12.48C78.0553 10.672 79.0553 8.936 80.2233 7.272C81.3913 5.608 82.6633 4.064 84.0393 2.64C84.5673 2.08 85.1273 1.616 85.7193 1.248C86.3113 0.88 86.9993 0.696 87.7833 0.696C88.3433 0.696 88.7833 0.88 89.1033 1.248C89.4393 1.6 89.6073 2.048 89.6073 2.592C89.6073 2.8 89.5833 3 89.5353 3.192C89.2153 4.52 88.7273 5.76 88.0713 6.912C87.4313 8.048 86.6153 9.088 85.6233 10.032C85.0473 10.576 84.3753 11.12 83.6073 11.664C82.8553 12.192 82.0553 12.632 81.2073 12.984C80.3753 13.336 79.5433 13.512 78.7113 13.512C78.5353 13.512 78.3593 13.504 78.1833 13.488C78.0073 13.456 77.8393 13.408 77.6793 13.344C77.3593 14.096 77.0633 14.848 76.7913 15.6C76.5193 16.352 76.3033 17.136 76.1433 17.952C77.3753 17.2 78.7113 16.656 80.1513 16.32C81.5913 15.984 83.0313 15.816 84.4713 15.816C84.8553 15.816 85.2953 15.888 85.7913 16.032C86.2873 16.16 86.7113 16.368 87.0633 16.656C87.4313 16.944 87.6153 17.336 87.6153 17.832C87.6153 17.864 87.5993 17.968 87.5673 18.144C87.5513 18.32 87.5193 18.424 87.4713 18.456C87.3433 18.296 87.2553 18.144 87.2073 18C86.9833 17.424 86.6313 17.064 86.1512 16.92C85.6713 16.76 85.1433 16.68 84.5673 16.68C83.3033 16.68 81.9753 16.808 80.5833 17.064C79.2073 17.304 77.9593 17.752 76.8393 18.408C76.7273 18.472 76.6073 18.528 76.4793 18.576C76.3673 18.64 76.2473 18.696 76.1193 18.744C76.0713 19.016 75.9913 19.312 75.8793 19.632C75.7673 19.952 75.6073 20.224 75.3993 20.448C75.1913 20.672 74.9113 20.784 74.5593 20.784ZM78.6633 12.888C79.4153 12.888 80.1833 12.704 80.9673 12.336C81.7673 11.952 82.5273 11.496 83.2473 10.968C83.9673 10.44 84.5833 9.936 85.0953 9.456C86.0393 8.56 86.8153 7.576 87.4233 6.504C88.0313 5.432 88.4873 4.264 88.7913 3C88.8073 2.952 88.8153 2.904 88.8153 2.856C88.8153 2.808 88.8153 2.76 88.8153 2.712C88.8153 2.44 88.7513 2.144 88.6233 1.824C88.5113 1.488 88.2793 1.32 87.9273 1.32C87.3833 1.32 86.7833 1.536 86.1273 1.968C85.4873 2.4 84.8233 2.976 84.1353 3.696C83.4633 4.4 82.7993 5.184 82.1433 6.048C81.5033 6.896 80.9033 7.752 80.3433 8.616C79.7833 9.48 79.2953 10.28 78.8793 11.016C78.4633 11.736 78.1513 12.32 77.9433 12.768C78.0233 12.816 78.1433 12.848 78.3033 12.864C78.4633 12.88 78.5833 12.888 78.6633 12.888Z" fill="#1D4ED8"/>
</svg>
